<svg width="34" height="34" viewBox="0 0 34 34" fill="none" xmlns="http://www.w3.org/2000/svg">
<path d="M4.03751 7.0125C4.03751 7.0125 4.94063 5.84375 8.92501 7.65C12.0594 9.08437 3.40001 13.175 2.55001 11.475C2.01876 10.4656 4.03751 7.0125 4.03751 7.0125Z" fill="#A8D600"/>
<path d="M27.625 20.2406C22.7375 16.8406 17.6375 6.74687 17 6.74687C15.1937 6.74687 14.025 7.4375 14.025 7.4375L25.6594 24.3312C25.6594 24.3844 28.2625 20.6656 27.625 20.2406Z" fill="#5B636B"/>
<path d="M30.0156 21.8344C29.2719 21.1969 27.1469 20.7719 26.5625 20.1875C24.3312 17.7437 19.6562 13.4406 15.6719 6.1625C14.2375 3.45312 7.59686 8.18125 7.59686 8.18125L19.1781 26.6156C19.2844 26.6156 32.7781 24.1187 30.0156 21.8344Z" fill="#333333"/>
<path d="M19.6031 25.4469C20.2938 24.8625 20.2406 21.675 19.6563 20.8781C16.0438 15.6719 10.0938 7.80937 7.75626 7.80937C5.31251 7.80937 4.88751 11.1031 3.50626 11.1031C2.33751 11.1031 3.98438 6.95937 3.98438 6.95937C1.75313 9.45625 1.38126 17.425 1.38126 17.425C1.38126 17.425 10.8375 32.9906 19.6031 25.4469Z" fill="#5B636B"/>
<path d="M1.43439 16.7344C1.43439 16.7344 1.22189 14.6625 2.12501 11.9C2.17814 15.0344 4.14376 15.7781 3.61251 19.9219L1.43439 16.7344ZM11.7938 26.35C14.2375 20.6656 24.7563 26.4031 30.0156 21.8344C30.8656 21.9406 32.5656 24.8625 32.5656 24.8625C32.5656 24.8625 30.6531 32.5125 11.7938 26.35Z" fill="#69727A"/>
<path d="M1.43437 16.4688C0.90312 16.4688 1.00937 20.1344 1.43437 20.7187C4.25 24.225 7.17187 25.1281 11.05 29.8031C15.725 35.3812 32.9375 32.725 32.9375 27.9437C32.9375 24.0125 32.4594 24.3844 32.4594 24.3844C31.2375 27.5719 20.3469 28.2625 16.3625 27.4125C7.59687 25.6062 2.01875 16.4688 1.43437 16.4688Z" fill="#D0D0D0"/>
<path d="M7.86249 10.5719C8.27326 10.5719 8.60624 10.1675 8.60624 9.66875C8.60624 9.16997 8.27326 8.76562 7.86249 8.76562C7.45173 8.76562 7.11874 9.16997 7.11874 9.66875C7.11874 10.1675 7.45173 10.5719 7.86249 10.5719Z" fill="#333333"/>
<path d="M9.98749 13.0156C10.3983 13.0156 10.7312 12.6113 10.7312 12.1125C10.7312 11.6137 10.3983 11.2094 9.98749 11.2094C9.57673 11.2094 9.24374 11.6137 9.24374 12.1125C9.24374 12.6113 9.57673 13.0156 9.98749 13.0156Z" fill="#333333"/>
<path d="M11.9 15.3531C12.3108 15.3531 12.6437 14.9488 12.6437 14.45C12.6437 13.9512 12.3108 13.5469 11.9 13.5469C11.4892 13.5469 11.1562 13.9512 11.1562 14.45C11.1562 14.9488 11.4892 15.3531 11.9 15.3531Z" fill="#333333"/>
<path d="M13.8656 18.275C14.2764 18.275 14.6094 17.8707 14.6094 17.3719C14.6094 16.8731 14.2764 16.4688 13.8656 16.4688C13.4548 16.4688 13.1219 16.8731 13.1219 17.3719C13.1219 17.8707 13.4548 18.275 13.8656 18.275Z" fill="#333333"/>
<path d="M15.725 20.5062C16.1357 20.5062 16.4687 20.1019 16.4687 19.6031C16.4687 19.1043 16.1357 18.7 15.725 18.7C15.3142 18.7 14.9812 19.1043 14.9812 19.6031C14.9812 20.1019 15.3142 20.5062 15.725 20.5062Z" fill="#333333"/>
<path d="M17.6906 23.1094C18.1014 23.1094 18.4344 22.705 18.4344 22.2062C18.4344 21.7075 18.1014 21.3031 17.6906 21.3031C17.2799 21.3031 16.9469 21.7075 16.9469 22.2062C16.9469 22.705 17.2799 23.1094 17.6906 23.1094Z" fill="#333333"/>
<path d="M17.6906 22.8438C17.5844 22.8438 17.425 22.7906 17.3188 22.6844C17.1063 22.4188 17.1063 22.0469 17.3188 21.7812C17.425 21.6219 20.2938 18.275 25.7125 18.275C25.9781 18.275 26.2438 18.5406 26.2438 18.9125C26.2438 19.2312 26.0313 19.55 25.7125 19.55C20.7188 19.55 18.0625 22.6844 18.0094 22.6844C17.9563 22.7906 17.85 22.8438 17.6906 22.8438ZM15.7781 20.2406C15.6719 20.2406 15.5656 20.1875 15.4594 20.0812C15.2469 19.8687 15.1938 19.4969 15.3531 19.2313C15.4594 19.0719 17.6906 15.725 23.9594 15.725C24.225 15.725 24.4906 15.9906 24.4906 16.3625C24.4906 16.6812 24.2781 17 23.9594 17C18.275 17 16.2031 20.0281 16.15 20.0281C16.0969 20.1344 15.9375 20.2406 15.7781 20.2406ZM13.9188 18.0094C13.8125 18.0094 13.6531 17.9562 13.5469 17.85C13.3344 17.6375 13.3344 17.2125 13.4938 16.9469C16.0438 13.5469 22.0469 13.4937 22.3125 13.4937C22.5781 13.4937 22.8438 13.7594 22.8438 14.1313C22.8438 14.45 22.6313 14.7687 22.3125 14.7687C22.2594 14.7687 16.5219 14.8219 14.2375 17.7969C14.1844 17.9563 14.025 18.0094 13.9188 18.0094ZM11.9531 15.0344C11.7938 15.0344 11.6344 14.9281 11.5281 14.7687C11.3688 14.5031 11.4219 14.0781 11.6344 13.9188C11.7406 13.8125 14.8219 11.1031 20.5594 11.1031C20.825 11.1031 21.0906 11.3688 21.0906 11.7406C21.0906 12.1125 20.8781 12.3781 20.5594 12.3781C15.1938 12.3781 12.2719 14.9281 12.2719 14.9813C12.1656 15.0344 12.0594 15.0344 11.9531 15.0344ZM10.0406 12.75C9.88126 12.75 9.72188 12.6438 9.61563 12.5375C9.45626 12.2719 9.45626 11.9 9.72188 11.6344C9.82813 11.5281 12.75 8.76562 19.0188 8.76562C19.2844 8.76562 19.55 9.03125 19.55 9.40313C19.55 9.72188 19.3375 10.0406 19.0188 10.0406C13.1219 10.0406 10.4125 12.6437 10.3594 12.6437C10.2531 12.6969 10.1469 12.75 10.0406 12.75Z" fill="#A8D600"/>
</svg>
